<?xml version="1.0" encoding="UTF-8"?>
<svg id="Capa_1" data-name="Capa 1" xmlns="http://www.w3.org/2000/svg" viewBox="0 0 327.38 297.74">
  <defs>
    <style>
      .cls-1 {
        fill: #fff;
        stroke: #fff;
        stroke-miterlimit: 10;
      }
    </style>
  </defs>
  <g id="NmbcT4.tif">
    <g>
      <path class="cls-1" d="m24.4,186.12c1.36-13.99,1.32-27.42,4.14-40.22,10.82-49.17,57.45-84.67,107.37-82.74,52.23,2.02,95.36,39.52,103.32,89.84,9.59,60.55-30.85,116.07-91.27,124.42-10.45,1.45-21.32.15-31.98-.34-2.93-.13-4.56.1-6.26,2.76-11.28,17.65-30.89,22.31-49.15,11.9-5.77-3.29-11.32-7.05-17.3-9.89-18.02-8.57-27.43-22.72-29.22-42.47-.73-8.07-2.36-16.06-3.64-24.08-2.67-16.73.42-22.72,13.99-29.18Zm28.8,16.03c4.38-8.87,13.14-17.15,10.45-30.15-1.1-5.32,1.98-7.36,8.36-7.36,40.63-.02,81.27-.02,121.9,0,7.11,0,8.83,1.8,8.72,8.86-.55,34.46-29.59,64.72-64.04,66.84-2.28.14-5.67.21-6.58,1.6-4.68,7.14-8.73,14.71-12.99,22.13.26.66.52,1.32.77,1.98,10.02-.53,20.18-.22,30.05-1.74,48.19-7.42,84.12-55.67,77.78-103.81-7.29-55.29-54.88-91.33-110.04-83.34-49.31,7.15-85.9,56.11-78.81,105.58.29,2,1.28,4.14,2.55,5.73,3.72,4.61,7.75,8.97,11.88,13.68Zm23.94,82.42c10.65-.18,17.31-3.73,21.56-10.94,10.3-17.48,20.51-35.02,30.43-52.72,6.13-10.93,2.5-23.13-8.3-29.7-4.73-2.87-9.55-5.6-14.35-8.35-12.86-7.35-24.98-4.08-32.47,8.78-5.85,10.04-11.42,20.26-17.61,30.08-1.5,2.38-5.18,5.11-7.44,4.78-2.28-.33-4.74-3.98-5.84-6.7-1.85-4.58-2.56-9.6-3.98-14.37-1.53-5.13-5.96-8.11-10.31-7.23-4.83.98-7.56,5.45-6.68,11.04,1.82,11.48,3.75,22.93,5.49,34.42,1.63,10.77,7.01,18.78,16.63,24.05,7.76,4.26,15.25,9.02,23.06,13.17,3.65,1.94,7.8,2.93,9.8,3.66Zm45.72-107.18c20.62,12.16,26.54,28.33,18.08,49.42,23.65-.91,49.95-28.15,47.84-49.42h-65.92Z"/>
      <path class="cls-1" d="m273.41,12.54c6.46,0,12.95-.45,19.36.08,20.13,1.68,34.71,18.68,34.09,39.28-.58,19.5-16.64,35.48-36.2,36.51-2.92.15-6.31,1.68-8.5,3.66-6.56,5.93-12.44,12.63-19.02,18.53-2,1.8-5.98,3.36-8.06,2.54-2.01-.8-2.76-4.81-3.99-7.44-.21-.46-.08-1.1-.02-1.65,1.06-9.71.3-16.55-11.65-20.91-15.75-5.75-22.75-24.23-19.22-41.16,3.3-15.81,16.93-28.05,33.31-29.37,6.6-.53,13.27-.09,19.91-.09Zm-9.59,78.19c.61.51,1.22,1.02,1.82,1.52,1.09-1.71,2.02-3.55,3.3-5.09,6.02-7.24,12.62-11.9,23.19-12.19,13.6-.37,23.02-13.02,22.18-26.26-.85-13.3-11.59-23.5-25.26-23.69-11.07-.15-22.15-.23-33.21.07-12.51.35-22.58,10.27-23.69,22.78-1.14,12.86,7.16,24.36,19.53,27.05q11.58,2.51,11.92,14.21c.02.53.15,1.05.23,1.58Z"/>
      <path class="cls-1" d="m180.26,139.25c-3.99,0-7.63.01-11.28,0-4.32-.02-7.31-2.01-7.3-6.45,0-4.15,2.83-6.17,6.94-6.18,8.09-.02,16.2-.3,24.26.2,2.18.14,5.6,2.42,5.96,4.23.44,2.19-1.65,4.96-2.83,7.39-.7,1.45-2.38,2.66-2.55,4.11-.79,6.84-2.58,9.56-6.93,9.12-5.77-.59-6.09-4.91-6.04-9.38,0-.73-.11-1.46-.23-3.04Z"/>
      <path class="cls-1" d="m104.4,139.24c-4.32,0-8.16.11-11.99-.03-4.08-.14-6.69-2.19-6.66-6.47.03-4.03,2.52-6.03,6.4-6.07,8.29-.09,16.61-.38,24.86.2,2.24.16,5.39,2.79,6.07,4.93.55,1.74-1.97,4.46-3.19,6.71-.84,1.55-2.49,3.01-2.55,4.55-.16,4.49-.9,8.26-6.3,8.62-4.3.29-6.18-2.48-6.39-8.89-.03-.9-.12-1.8-.24-3.55Z"/>
    </g>
  </g>
</svg>