<?xml version="1.0" encoding="UTF-8"?>
<svg id="Capa_1" data-name="Capa 1" xmlns="http://www.w3.org/2000/svg" viewBox="0 0 318.34 322.65">
  <defs>
    <style>
      .cls-1 {
        fill: #fff;
        stroke: #fff;
        stroke-miterlimit: 10;
      }
    </style>
  </defs>
  <g id="oSzEaN.tif">
    <path class="cls-1" d="m129.6,239.04c-2.03,6.92-5.58,12.53-10.32,17.28-7.91,7.92-9.03,16.93-5.61,26.97.81,2.37,2.33,4.92-.11,7.2-2.38,2.22-5.12,1.04-7.48.08-14.18-5.78-29.51-8.64-43-16.18-14.38-8.03-25.24-18.74-29.15-34.91-2.46-10.18-2.32-20.52-.48-30.7,2.79-15.48,6.49-30.8,9.22-46.28,1.69-9.55,2.21-19.29,3.46-28.92.22-1.7,1.07-4.04,2.37-4.68,1.3-.64,3.86,0,5.27.94,8.61,5.73,13.33,14.04,15.94,23.63,1.53,5.61,2.95,11.26,4.56,16.85.59,2.05,1.6,3.99,2.79,5.82,0-3.06.04-6.13,0-9.19-.21-14.19,4.98-26.43,14.09-37.32,5.45-6.52,11.05-12.93,16.11-19.73,9.95-13.37,14.28-28.69,15.49-44.95.31-4.18.15-8.41.66-12.56.19-1.53,1.35-3.56,2.66-4.17,1.13-.52,3.61.17,4.6,1.17,9.96,10.02,19.9,20.08,29.53,30.4,12.64,13.54,18.85,29.66,18.1,47.89-.43,10.44-2.12,20.83-3.26,31.24-.11,1.02-.31,2.02-.52,3.31,4.77-1.08,7.78-3.73,9.64-7.62,1.86-3.89,3.34-7.94,5.31-11.77,1.92-3.74,4.06-7.4,6.46-10.87.78-1.13,2.82-2.28,4.04-2.08,1.39.23,3.18,1.75,3.65,3.09,9.85,28.14,16.8,56.8,15.36,86.81-.58,12.1-2.97,23.82-8.69,34.73-7.28,13.89-18.78,22.71-34.19,26.88-2.05.55-3.95,1.59-5.95,2.33-6.94,2.59-13.84,5.32-20.87,7.67-3.46,1.15-5.86-1.18-5.5-4.88.86-8.77,1.27-17.51-.99-26.16-2.14-8.17-6.74-14.91-13.19-21.31Zm-74.33-97.48c-.31.11-.62.23-.93.34-.14.73-.31,1.45-.43,2.18-1.56,9.5-2.89,19.03-4.73,28.48-2.94,15.06-7.23,29.89-8.1,45.3-.82,14.52,2.1,27.92,12.8,38.87,7.96,8.14,17.87,13.27,28.58,17.12.19.07.48-.12.74-.2-11.13-19.47-10.9-39.61-4.15-60.11.48-1.45,2.25-3.26,3.63-3.45,1.38-.18,3.47,1.13,4.45,2.38,2.31,2.94,4.07,6.29,6.22,9.37,1.39,1.99,3.06,3.79,4.61,5.67.25-.12.5-.25.75-.37-.09-1.09-.13-2.19-.27-3.28-1.84-14.6,1.84-27.69,11.85-38.8,6.21-6.89,12.83-13.43,19.46-19.94,1.02-1,3.45-1.74,4.59-1.23,1.31.58,2.67,2.65,2.71,4.11.27,9.38,3.13,17.98,7.66,26.15,1.12,2.01,2.24,4.03,3.41,6.01,6.32,10.68,12.15,21.52,12.61,34.32,2.48-3.92,4.57-7.88,6.88-11.71,2.96-4.92,6.61-9.32,11.99-11.9,1.38-.66,3.77-.95,4.81-.23,1.2.84,1.9,2.98,1.97,4.58.16,4.08-.4,8.19-.22,12.27.25,5.71,1,11.4,1.39,17.11.55,8.08.79,16.15-2.61,24.57,1.55-.91,2.39-1.36,3.18-1.88,6.93-4.56,11.96-10.69,15.52-17.99,4.66-9.55,6.56-19.74,7.05-30.19,1.19-25.49-4.14-50.04-11.77-74.22-.09-.28-.33-.52-.78-1.21-1.84,4.31-3.67,8.1-5.1,12.03-3.85,10.61-12.17,14.89-23.04,15.69-3.78.28-5.61-1.86-4.94-5.49,1.37-7.5,2.89-14.99,3.98-22.53,1.4-9.68,1.52-19.4-.32-29.06-1.52-7.97-4.6-15.35-9.28-22.07-7.75-11.14-18.06-20.03-27.54-29.88-.32.57-.55.8-.58,1.05-.11.85-.15,1.71-.21,2.56-1.43,19.06-7.12,36.64-19.35,51.89-3.98,4.97-8.06,9.87-12.27,14.66-9.97,11.32-15.07,24.24-13.78,39.22.43,5.02,1.39,10,2.17,14.99.35,2.29.99,4.64-1.52,6.19-2.36,1.47-4.29.17-6.2-1.09-6.59-4.35-11.06-10.3-13.35-17.64-2.19-7.01-3.74-14.21-6.06-21.18-1.32-3.98-3.6-7.66-5.45-11.48Zm122.7,82.33c-.36-.06-.72-.13-1.08-.19-1.27,2.02-2.62,4.01-3.81,6.08-2.43,4.25-4.46,8.75-7.25,12.75-2.21,3.18-5.22,5.87-8.07,8.59-1.52,1.45-3.82,1.9-5.32.33-1.07-1.12-1.84-3.27-1.53-4.72,2.48-11.7.7-22.71-4.88-33.28-6.18-11.7-14.2-22.59-16.79-36.18-5.17,5.16-10.17,10.27-14.62,15.79-4.74,5.89-7.73,12.78-7.79,20.3-.05,6.43.87,12.87,1.51,19.29.33,3.28-1.54,5.46-4.9,5.11-5.47-.58-10.26-2.59-13.75-6.9-1.68-2.07-3.19-4.26-4.78-6.4-.3,0-.61.02-.91.02-.4,6.2-1.27,12.41-1.1,18.6.3,10.76,3.01,20.94,10.15,29.56,3,3.63,6.54,6.65,10.52,8.26,0-4.47-.36-8.95.08-13.35.68-6.81,5.18-11.8,9.58-16.71,5.23-5.84,8.66-12.4,9.55-20.18.43-3.78,4.15-5.14,7.14-2.67,2.09,1.73,4.01,3.65,5.94,5.56,8.67,8.62,14.71,18.61,16.21,30.73.71,5.74.7,11.56,1.06,18.07,4.62-2.22,9.32-4.11,13.61-6.63,7.12-4.18,11.9-10.43,12.1-18.58.26-11.08-.52-22.18-.86-33.28Z"/>
  </g>
</svg>