<?xml version="1.0" encoding="UTF-8"?>
<svg id="Capa_1" data-name="Capa 1" xmlns="http://www.w3.org/2000/svg" viewBox="0 0 292.6 275.65">
  <defs>
    <style>
      .cls-1 {
        fill: #fff;
        stroke: #fff;
        stroke-miterlimit: 10;
      }
    </style>
  </defs>
  <g id="UOZZX6.tif">
    <g>
      <path class="cls-1" d="m136.27,196.89c-.34-13.14,1.59-25.66,9.17-36.83,6.34-9.34,14.94-15.63,25.35-19.9,23.49-9.64,38.06-31.99,37.13-56.33-.98-25.45-16.47-46.25-40.56-54.43-36.34-12.33-75.59,14.85-76.86,53.37-.21,6.32-1.81,11.58-7.82,14.38-8.88,4.14-18.11-2.14-18.24-12.22-.49-38.08,27.44-73.63,64.48-82.1,44.42-10.16,86.78,13.69,101.15,56.95,13.43,40.43-7.19,86.78-46.67,103.17-14.7,6.1-21.66,15.93-20.98,31.64.21,4.93.05,9.88-.15,14.81-.31,7.77-5.66,13.11-12.98,13.16-7.49.05-12.65-5-13.01-12.97-.19-4.22-.03-8.46-.03-12.69Z"/>
      <path class="cls-1" d="m136.33,262.03c0-7.42,5.59-12.92,13.06-12.83,7.1.08,12.78,5.65,12.9,12.64.12,6.98-5.99,13.23-12.99,13.3-7.19.07-12.97-5.78-12.97-13.11Z"/>
    </g>
  </g>
</svg>