<?xml version="1.0" encoding="UTF-8"?>
<svg id="Capa_1" data-name="Capa 1" xmlns="http://www.w3.org/2000/svg" viewBox="0 0 327.38 322.65">
    <defs>
        <style>
            .cls-1 {
            fill: #fff;
            stroke: #fff;
            stroke-miterlimit: 10;
            }
        </style>
    </defs>
    <g id="_8Fy3Nl.tif">
        <path class="cls-1"
            d="m150.83,76.91c24.53,0,49.06,0,73.58.02,1.12,0,2.71-.08,3.25.55.74.86,1.36,2.85.86,3.54-4.79,6.58-6.04,14.32-7.66,21.88-4.65,21.57-6.97,43.47-9.14,65.38-.1,1.02-.05,2.06-.05,3.09,0,44.71-.07,89.43.09,134.14.02,4.72-1.91,7.77-6.03,9.08-6.61,2.09-13.34,4.19-20.19,5.13-24.32,3.34-48.71,3.29-73-.49-5.62-.87-11.14-2.64-16.54-4.44-4.47-1.49-6.48-4.6-6.46-9.68.19-44.06.3-88.11-.03-132.17-.08-10.54-1.43-21.13-2.96-31.59-2.24-15.28-5.03-30.49-7.89-45.67-.97-5.11-2.5-10.17-5.9-14.48-1.45-1.84-.24-3.94,2.19-4.25.85-.11,1.72-.04,2.58-.04,24.43,0,48.86,0,73.3,0Zm-63.39,32.41c.04.72.03,1.18.09,1.64,2.28,17.37,4.64,34.72,6.81,52.1.88,7.06.8,14.26,2.06,21.25,5.18,28.79,29.68,47.17,59.53,45.03,25.14-1.8,46.96-23.02,49.38-47.52,2.03-20.6,4.49-41.15,6.84-61.71.41-3.59,1.15-7.13,1.75-10.74-3.62-1.27-6.99-2.33-10.26-3.62-5.71-2.26-11.41-2.41-17.02.08-9,3.99-17.91,4.07-26.92.07-5.91-2.62-11.76-2.15-17.85-.04-4.53,1.57-9.45,2.99-14.15,2.87-4.72-.12-9.43-2.08-14.06-3.5-4.04-1.24-8.06-1.81-12.13-.57-4.65,1.41-9.22,3.06-14.06,4.68Zm7.58,137.77v4c0,17.8,0,35.6,0,53.4,0,4.41.1,5.11,4.5,6.19,7.58,1.85,15.25,3.66,23,4.54,18.69,2.15,37.48,2.2,56.17-.01,8.11-.96,16.08-3.14,24.07-4.91,2.62-.58,3.65-2.29,3.62-5.17-.16-18.17-.08-36.35-.08-54.53,0-.9,0-1.79,0-2.63-.38-.07-.5-.12-.55-.09-.36.29-.74.58-1.05.91-5.28,5.66-11.76,9.5-19.07,12.11-8.26,2.95-16.85,4.24-25.57,4.71-14.31.77-28.52.26-42.34-4.03-8.64-2.68-16.14-7.14-22.7-14.49Zm111.28-47.53c-12.01,22.61-30.1,35.16-55.52,35.23-25.43.08-43.61-12.42-55.75-34.96,0,12.7-.03,24.41.05,36.11,0,1.13.59,2.35,1.21,3.36,5.19,8.54,12.92,14.05,22.46,16.91,19.68,5.9,39.63,5.8,59.54,1.25,11.29-2.58,20.7-8.21,26.8-18.26.61-1,1.15-2.23,1.16-3.36.08-11.8.05-23.6.05-36.29Zm-126.02-117.1c2.15,7.27,4.24,14.32,6.35,21.47,3.01-1,6.06-1.83,8.96-3,7.39-2.98,14.76-3.11,22.02.11,7.56,3.35,14.95,3.21,22.48-.07,7.09-3.09,14.36-3.17,21.45-.05,7.74,3.41,15.34,3.52,23.01-.03.52-.24,1.08-.37,1.62-.56,5.99-2.2,11.96-2.17,17.96,0,3.49,1.26,7.02,2.4,10.49,3.59,2.12-7.19,4.2-14.26,6.32-21.44-46.82,0-93.72,0-140.68,0Z" />
    </g>
</svg>